<svg version="1.1" viewBox="0.0 0.0 320.0 320.0" fill="none" stroke="none" stroke-linecap="square" stroke-miterlimit="10" xmlns:xlink="http://www.w3.org/1999/xlink" xmlns="http://www.w3.org/2000/svg"><clipPath id="g5228cc8a64_0_1.0"><path d="m0 0l960.0 0l0 540.0l-960.0 0l0 -540.0z" clip-rule="nonzero"/></clipPath><g clip-path="url(#g5228cc8a64_0_1.0)"><path d="m0 0l960.0 0l0 540.0l-960.0 0z" fill-rule="evenodd"/><path fill="#000000" fill-opacity="0.0" d="m23.687096 -15.636266l367.68503 0l-0.03149414 293.44882l-367.68503 0z" fill-rule="evenodd"/><path fill="#434343" d="m254.80605 40.782482l-8.031418 1.5q-14.37767 24.828121 -27.632172 66.8125q-5.032959 15.875 -14.1914215 36.500008q-9.142838 20.625 -20.34784 38.171875q-15.127533 23.515625 -40.238525 38.71875q-25.09539 15.21875 -45.814438 18.01564q-9.51577 1.3125 -21.656395 1.3125q-12.125 0 -25.015163 -4.2968903q-20.155527 -6.71875 -27.622637 -22.015625q-3.358612 -7.09375 -3.3575897 -16.625q0.0010204315 -9.515625 5.0492783 -22.390625q3.5477982 -8.59375 12.501722 -16.046875q8.969551 -7.46875 14.00082 -7.65625q2.250023 -0.1875 2.24992 0.75q-0.1875763 0.734375 -2.4376984 1.859375q-5.9690094 2.421875 -13.251141 10.640625q-7.282133 8.21875 -9.611149 16.515625q-2.3290176 8.3125 -2.3294964 12.78125q-0.0014629364 13.625 7.278883 22.03125q5.030651 5.59375 12.49892 10.078125q7.4682693 4.484375 16.046215 6.15625q12.702866 2.4375 20.15599 2.4375q7.46875 0 13.265785 -1.5q12.687798 -2.796875 24.53225 -9.328125q11.860069 -6.53125 21.001534 -14.28125q9.157074 -7.75 18.205185 -19.140625q9.063721 -11.375 15.220963 -20.703125q6.157257 -9.34375 13.064911 -22.40625q11.205399 -21.281258 22.958374 -48.906258q14.753525 -32.84375 29.881088 -56.749996q-25.953583 4.296875 -52.830124 18.671875q-13.625793 7.281246 -23.330109 18.484371q-12.517151 14.1875 -12.51889 30.421875q-9.460449E-4 8.765625 4.20166 13.625q4.202606 4.8593826 8.858856 4.8593826q4.671875 0 10.265839 -2.0468826q5.6095886 -2.0625 10.094513 -7.109375q7.094635 -8.203125 7.0957794 -18.84375q4.7302246E-4 -4.484375 -1.3118591 -5.984375q-2.2342224 -1.484375 -0.37471008 -2.796875q2.062622 -1.109375 4.2967377 1.3125q1.8589325 4.109375 1.8583374 9.609375q-5.79834E-4 5.5 -4.095093 12.59375q-6.9075165 11.765625 -19.0486 16.062508q-5.5939484 1.859375 -10.640823 1.859375q-8.390625 0 -15.108795 -5.40625q-8.592987 -7.0937576 -8.591705 -19.046883q0.0016174316 -15.109375 10.831223 -28.921875q8.204269 -10.640625 19.314392 -17.546871q11.110107 -6.90625 25.110687 -12.328125q22.579071 -8.765625 49.095078 -12.3125q2.2347717 -3.734375 6.719696 -8.765627q4.484909 -5.046875 7.4693756 -5.984375q2.984497 -0.9375 4.843872 -0.9375q6.53125 0 6.5306396 5.609375q-0.18804932 5.031252 -4.110199 7.750002q-3.9065552 2.703125 -11.000534 4.9375zm5.7825775 -12.312502q-0.375 0 -0.8437805 0.1875q-0.46878052 0.1875 -1.3125916 0.84375q-0.82818604 0.640625 -1.5782471 1.203125q-0.75006104 0.5625 -1.7814331 1.6875019q-1.0157471 1.109375 -1.6720734 1.765625q-0.65631104 0.65625 -1.7814484 1.875q-1.1094971 1.203125 -1.4845428 1.578125q12.875229 -2.234375 12.688248 -6.906252q-0.35913086 -2.234375 -2.2341309 -2.234375zm-62.743134 203.07812q-8.203125 0 -12.687134 -3.453125q-4.484009 -3.453125 -4.4834747 -8.3125q5.187988E-4 -4.84375 2.813675 -11.0q4.8447723 -9.53125 17.548523 -15.3125q9.516098 -4.484375 25.188385 -8.3125q15.687912 -3.828125 20.1568 -5.125q6.7200165 -11.765625 16.067017 -42.0q-10.83017 19.03125 -18.112244 26.6875q-7.282074 7.65625 -14.750824 7.65625q-10.078125 0 -11.7491 -8.40625q-0.7498627 -1.296875 -0.37457275 -3.90625q0.37527466 -2.625 0.46914673 -3.734375q0.09387207 -1.125 1.2035217 -3.640625q1.1252594 -2.53125 1.5003815 -3.640625q2.0473328 -4.296875 3.5475922 -6.71875q-2.984375 0 -1.6871796 -2.984375l3.360077 -6.53125q6.3450623 -12.140633 10.455338 -20.546883q1.875412 -3.90625 7.281662 -3.90625l11.390625 0q-0.37503052 0.359375 -1.8751526 1.484375q-3.3596191 2.234375 -5.0318146 5.234375q-6.719986 11.5625 -16.800415 33.031258q-4.110321 8.78125 -4.1107635 12.890625q-4.4250488E-4 4.09375 1.3899994 5.78125q1.4060822 1.671875 3.8279572 1.671875q3.546875 0 9.907043 -7.46875q13.251663 -15.484375 29.302094 -48.718758q2.0629272 -3.90625 7.2816772 -3.90625l10.0781555 0q-4.859741 3.359375 -7.6571655 8.5q-2.7974548 5.125 -6.064026 13.906258q-3.2665405 8.765625 -8.221252 23.328125q-4.9390564 14.546875 -7.5491943 21.828125q17.547424 -5.21875 26.876984 -18.484375q4.1099854 -5.78125 11.752197 -20.53125q1.3127747 -2.609375 2.3283386 -2.046875q1.031189 0.5625 1.0310974 1.5q-9.1552734E-5 0.921875 -3.078888 7.1875q-3.0787964 6.25 -6.251251 11.578125q-3.1724548 5.3125 -8.21991 10.90625q-5.0318604 5.59375 -11.188477 8.859375q-6.1565857 3.265625 -16.422607 7.0q-14.377823 26.140625 -28.941635 38.453125q-13.626205 11.203125 -29.501205 11.203125zm-10.810516 -18.484375q-2.0629425 4.109375 -2.0633087 7.5625q-3.8146973E-4 3.453125 2.6244202 5.3125q2.6091766 1.875 6.5310516 1.875q10.8125 0 23.12619 -11.109375q12.329315 -11.109375 21.674438 -23.796875l4.0944824 -6.90625q-30.79773 8.03125 -38.813736 11.578125q-11.95369 5.21875 -17.173538 15.484375z" fill-rule="nonzero"/></g></svg>